<svg width="480" height="436" viewBox="0 0 480 436" fill="none" xmlns="http://www.w3.org/2000/svg">
<circle cx="80" cy="80" r="80" fill="#93C4ED" fill-opacity="0.5"/>
<path d="M45.9674 87.24C44.5408 87.24 43.2474 86.9333 42.0874 86.32C40.9408 85.6933 40.0341 84.8333 39.3674 83.74C38.7141 82.6333 38.3874 81.3867 38.3874 80C38.3874 78.6133 38.7141 77.3733 39.3674 76.28C40.0341 75.1733 40.9408 74.3133 42.0874 73.7C43.2474 73.0733 44.5474 72.76 45.9874 72.76C47.2008 72.76 48.2941 72.9733 49.2674 73.4C50.2541 73.8267 51.0808 74.44 51.7474 75.24L49.6674 77.16C48.7208 76.0667 47.5474 75.52 46.1474 75.52C45.2808 75.52 44.5074 75.7133 43.8274 76.1C43.1474 76.4733 42.6141 77 42.2274 77.68C41.8541 78.36 41.6674 79.1333 41.6674 80C41.6674 80.8667 41.8541 81.64 42.2274 82.32C42.6141 83 43.1474 83.5333 43.8274 83.92C44.5074 84.2933 45.2808 84.48 46.1474 84.48C47.5474 84.48 48.7208 83.9267 49.6674 82.82L51.7474 84.74C51.0808 85.5533 50.2541 86.1733 49.2674 86.6C48.2808 87.0267 47.1808 87.24 45.9674 87.24ZM60.2554 76.08C61.5887 76.08 62.6621 76.48 63.4754 77.28C64.3021 78.08 64.7154 79.2667 64.7154 80.84V87H61.5954V81.32C61.5954 80.4667 61.4087 79.8333 61.0354 79.42C60.6621 78.9933 60.1221 78.78 59.4154 78.78C58.6287 78.78 58.0021 79.0267 57.5354 79.52C57.0687 80 56.8354 80.72 56.8354 81.68V87H53.7154V72.16H56.8354V77.36C57.2487 76.9467 57.7487 76.6333 58.3354 76.42C58.9221 76.1933 59.5621 76.08 60.2554 76.08ZM71.8835 76.08C73.5502 76.08 74.8302 76.48 75.7235 77.28C76.6168 78.0667 77.0635 79.26 77.0635 80.86V87H74.1435V85.66C73.5568 86.66 72.4635 87.16 70.8635 87.16C70.0368 87.16 69.3168 87.02 68.7035 86.74C68.1035 86.46 67.6435 86.0733 67.3235 85.58C67.0035 85.0867 66.8435 84.5267 66.8435 83.9C66.8435 82.9 67.2168 82.1133 67.9635 81.54C68.7235 80.9667 69.8902 80.68 71.4635 80.68H73.9435C73.9435 80 73.7368 79.48 73.3235 79.12C72.9102 78.7467 72.2902 78.56 71.4635 78.56C70.8902 78.56 70.3235 78.6533 69.7635 78.84C69.2168 79.0133 68.7502 79.2533 68.3635 79.56L67.2435 77.38C67.8302 76.9667 68.5302 76.6467 69.3435 76.42C70.1702 76.1933 71.0168 76.08 71.8835 76.08ZM71.6435 85.06C72.1768 85.06 72.6502 84.94 73.0635 84.7C73.4768 84.4467 73.7702 84.08 73.9435 83.6V82.5H71.8035C70.5235 82.5 69.8835 82.92 69.8835 83.76C69.8835 84.16 70.0368 84.48 70.3435 84.72C70.6635 84.9467 71.0968 85.06 71.6435 85.06ZM93.6673 76.08C95.0139 76.08 96.0806 76.48 96.8673 77.28C97.6673 78.0667 98.0673 79.2533 98.0673 80.84V87H94.9473V81.32C94.9473 80.4667 94.7673 79.8333 94.4073 79.42C94.0606 78.9933 93.5606 78.78 92.9073 78.78C92.1739 78.78 91.5939 79.02 91.1673 79.5C90.7406 79.9667 90.5273 80.6667 90.5273 81.6V87H87.4073V81.32C87.4073 79.6267 86.7273 78.78 85.3673 78.78C84.6473 78.78 84.0739 79.02 83.6473 79.5C83.2206 79.9667 83.0073 80.6667 83.0073 81.6V87H79.8873V76.24H82.8673V77.48C83.2673 77.0267 83.7539 76.68 84.3273 76.44C84.9139 76.2 85.5539 76.08 86.2473 76.08C87.0073 76.08 87.6939 76.2333 88.3073 76.54C88.9206 76.8333 89.4139 77.2667 89.7873 77.84C90.2273 77.28 90.7806 76.8467 91.4473 76.54C92.1273 76.2333 92.8673 76.08 93.6673 76.08ZM105.204 76.08C106.87 76.08 108.15 76.48 109.044 77.28C109.937 78.0667 110.384 79.26 110.384 80.86V87H107.464V85.66C106.877 86.66 105.784 87.16 104.184 87.16C103.357 87.16 102.637 87.02 102.024 86.74C101.424 86.46 100.964 86.0733 100.644 85.58C100.324 85.0867 100.164 84.5267 100.164 83.9C100.164 82.9 100.537 82.1133 101.284 81.54C102.044 80.9667 103.21 80.68 104.784 80.68H107.264C107.264 80 107.057 79.48 106.644 79.12C106.23 78.7467 105.61 78.56 104.784 78.56C104.21 78.56 103.644 78.6533 103.084 78.84C102.537 79.0133 102.07 79.2533 101.684 79.56L100.564 77.38C101.15 76.9667 101.85 76.6467 102.664 76.42C103.49 76.1933 104.337 76.08 105.204 76.08ZM104.964 85.06C105.497 85.06 105.97 84.94 106.384 84.7C106.797 84.4467 107.09 84.08 107.264 83.6V82.5H105.124C103.844 82.5 103.204 82.92 103.204 83.76C103.204 84.16 103.357 84.48 103.664 84.72C103.984 84.9467 104.417 85.06 104.964 85.06ZM116.828 87.16C115.934 87.16 115.061 87.0533 114.208 86.84C113.354 86.6133 112.674 86.3333 112.168 86L113.208 83.76C113.688 84.0667 114.268 84.32 114.948 84.52C115.628 84.7067 116.294 84.8 116.948 84.8C118.268 84.8 118.928 84.4733 118.928 83.82C118.928 83.5133 118.748 83.2933 118.388 83.16C118.028 83.0267 117.474 82.9133 116.728 82.82C115.848 82.6867 115.121 82.5333 114.548 82.36C113.974 82.1867 113.474 81.88 113.048 81.44C112.634 81 112.428 80.3733 112.428 79.56C112.428 78.88 112.621 78.28 113.008 77.76C113.408 77.2267 113.981 76.8133 114.728 76.52C115.488 76.2267 116.381 76.08 117.408 76.08C118.168 76.08 118.921 76.1667 119.668 76.34C120.428 76.5 121.054 76.7267 121.548 77.02L120.508 79.24C119.561 78.7067 118.528 78.44 117.408 78.44C116.741 78.44 116.241 78.5333 115.908 78.72C115.574 78.9067 115.408 79.1467 115.408 79.44C115.408 79.7733 115.588 80.0067 115.948 80.14C116.308 80.2733 116.881 80.4 117.668 80.52C118.548 80.6667 119.268 80.8267 119.828 81C120.388 81.16 120.874 81.46 121.288 81.9C121.701 82.34 121.908 82.9533 121.908 83.74C121.908 84.4067 121.708 85 121.308 85.52C120.908 86.04 120.321 86.4467 119.548 86.74C118.788 87.02 117.881 87.16 116.828 87.16Z" fill="#083E5B"/>
<circle cx="175" cy="356" r="80" fill="#93C4ED" fill-opacity="0.5"/>
<path d="M130.848 349.432V363.432H127.608V357.692H121.248V363.432H118.008V349.432H121.248V354.952H127.608V349.432H130.848ZM138.281 352.512C139.947 352.512 141.227 352.912 142.121 353.712C143.014 354.498 143.461 355.692 143.461 357.292V363.432H140.541V362.092C139.954 363.092 138.861 363.592 137.261 363.592C136.434 363.592 135.714 363.452 135.101 363.172C134.501 362.892 134.041 362.505 133.721 362.012C133.401 361.518 133.241 360.958 133.241 360.332C133.241 359.332 133.614 358.545 134.361 357.972C135.121 357.398 136.287 357.112 137.861 357.112H140.341C140.341 356.432 140.134 355.912 139.721 355.552C139.307 355.178 138.687 354.992 137.861 354.992C137.287 354.992 136.721 355.085 136.161 355.272C135.614 355.445 135.147 355.685 134.761 355.992L133.641 353.812C134.227 353.398 134.927 353.078 135.741 352.852C136.567 352.625 137.414 352.512 138.281 352.512ZM138.041 361.492C138.574 361.492 139.047 361.372 139.461 361.132C139.874 360.878 140.167 360.512 140.341 360.032V358.932H138.201C136.921 358.932 136.281 359.352 136.281 360.192C136.281 360.592 136.434 360.912 136.741 361.152C137.061 361.378 137.494 361.492 138.041 361.492ZM149.265 354.092C149.638 353.572 150.138 353.178 150.765 352.912C151.405 352.645 152.138 352.512 152.965 352.512V355.392C152.618 355.365 152.385 355.352 152.265 355.352C151.371 355.352 150.671 355.605 150.165 356.112C149.658 356.605 149.405 357.352 149.405 358.352V363.432H146.285V352.672H149.265V354.092ZM159.101 352.512C160.768 352.512 162.048 352.912 162.941 353.712C163.834 354.498 164.281 355.692 164.281 357.292V363.432H161.361V362.092C160.774 363.092 159.681 363.592 158.081 363.592C157.254 363.592 156.534 363.452 155.921 363.172C155.321 362.892 154.861 362.505 154.541 362.012C154.221 361.518 154.061 360.958 154.061 360.332C154.061 359.332 154.434 358.545 155.181 357.972C155.941 357.398 157.108 357.112 158.681 357.112H161.161C161.161 356.432 160.954 355.912 160.541 355.552C160.128 355.178 159.508 354.992 158.681 354.992C158.108 354.992 157.541 355.085 156.981 355.272C156.434 355.445 155.968 355.685 155.581 355.992L154.461 353.812C155.048 353.398 155.748 353.078 156.561 352.852C157.388 352.625 158.234 352.512 159.101 352.512ZM158.861 361.492C159.394 361.492 159.868 361.372 160.281 361.132C160.694 360.878 160.988 360.512 161.161 360.032V358.932H159.021C157.741 358.932 157.101 359.352 157.101 360.192C157.101 360.592 157.254 360.912 157.561 361.152C157.881 361.378 158.314 361.492 158.861 361.492ZM180.885 352.512C182.232 352.512 183.298 352.912 184.085 353.712C184.885 354.498 185.285 355.685 185.285 357.272V363.432H182.165V357.752C182.165 356.898 181.985 356.265 181.625 355.852C181.278 355.425 180.778 355.212 180.125 355.212C179.392 355.212 178.812 355.452 178.385 355.932C177.958 356.398 177.745 357.098 177.745 358.032V363.432H174.625V357.752C174.625 356.058 173.945 355.212 172.585 355.212C171.865 355.212 171.292 355.452 170.865 355.932C170.438 356.398 170.225 357.098 170.225 358.032V363.432H167.105V352.672H170.085V353.912C170.485 353.458 170.972 353.112 171.545 352.872C172.132 352.632 172.772 352.512 173.465 352.512C174.225 352.512 174.912 352.665 175.525 352.972C176.138 353.265 176.632 353.698 177.005 354.272C177.445 353.712 177.998 353.278 178.665 352.972C179.345 352.665 180.085 352.512 180.885 352.512ZM194.441 352.512C195.441 352.512 196.348 352.745 197.161 353.212C197.988 353.665 198.635 354.312 199.101 355.152C199.568 355.978 199.801 356.945 199.801 358.052C199.801 359.158 199.568 360.132 199.101 360.972C198.635 361.798 197.988 362.445 197.161 362.912C196.348 363.365 195.441 363.592 194.441 363.592C192.961 363.592 191.835 363.125 191.061 362.192V363.432H188.081V348.592H191.201V353.812C191.988 352.945 193.068 352.512 194.441 352.512ZM193.901 361.032C194.701 361.032 195.355 360.765 195.861 360.232C196.381 359.685 196.641 358.958 196.641 358.052C196.641 357.145 196.381 356.425 195.861 355.892C195.355 355.345 194.701 355.072 193.901 355.072C193.101 355.072 192.441 355.345 191.921 355.892C191.415 356.425 191.161 357.145 191.161 358.052C191.161 358.958 191.415 359.685 191.921 360.232C192.441 360.765 193.101 361.032 193.901 361.032ZM212.43 358.092C212.43 358.132 212.41 358.412 212.37 358.932H204.23C204.377 359.598 204.723 360.125 205.27 360.512C205.817 360.898 206.497 361.092 207.31 361.092C207.87 361.092 208.363 361.012 208.79 360.852C209.23 360.678 209.637 360.412 210.01 360.052L211.67 361.852C210.657 363.012 209.177 363.592 207.23 363.592C206.017 363.592 204.943 363.358 204.01 362.892C203.077 362.412 202.357 361.752 201.85 360.912C201.343 360.072 201.09 359.118 201.09 358.052C201.09 356.998 201.337 356.052 201.83 355.212C202.337 354.358 203.023 353.698 203.89 353.232C204.77 352.752 205.75 352.512 206.83 352.512C207.883 352.512 208.837 352.738 209.69 353.192C210.543 353.645 211.21 354.298 211.69 355.152C212.183 355.992 212.43 356.972 212.43 358.092ZM206.85 354.872C206.143 354.872 205.55 355.072 205.07 355.472C204.59 355.872 204.297 356.418 204.19 357.112H209.49C209.383 356.432 209.09 355.892 208.61 355.492C208.13 355.078 207.543 354.872 206.85 354.872ZM225.047 358.092C225.047 358.132 225.027 358.412 224.987 358.932H216.847C216.994 359.598 217.341 360.125 217.887 360.512C218.434 360.898 219.114 361.092 219.927 361.092C220.487 361.092 220.981 361.012 221.407 360.852C221.847 360.678 222.254 360.412 222.627 360.052L224.287 361.852C223.274 363.012 221.794 363.592 219.847 363.592C218.634 363.592 217.561 363.358 216.627 362.892C215.694 362.412 214.974 361.752 214.467 360.912C213.961 360.072 213.707 359.118 213.707 358.052C213.707 356.998 213.954 356.052 214.447 355.212C214.954 354.358 215.641 353.698 216.507 353.232C217.387 352.752 218.367 352.512 219.447 352.512C220.501 352.512 221.454 352.738 222.307 353.192C223.161 353.645 223.827 354.298 224.307 355.152C224.801 355.992 225.047 356.972 225.047 358.092ZM219.467 354.872C218.761 354.872 218.167 355.072 217.687 355.472C217.207 355.872 216.914 356.418 216.807 357.112H222.107C222.001 356.432 221.707 355.892 221.227 355.492C220.747 355.078 220.161 354.872 219.467 354.872Z" fill="#083E5B"/>
<circle cx="400" cy="175" r="80" fill="#93C4ED" fill-opacity="0.5"/>
<path d="M366.606 174.942C367.406 175.196 368.033 175.622 368.486 176.222C368.939 176.809 369.166 177.536 369.166 178.402C369.166 179.629 368.686 180.576 367.726 181.242C366.779 181.896 365.393 182.222 363.566 182.222H356.326V168.222H363.166C364.873 168.222 366.179 168.549 367.086 169.202C368.006 169.856 368.466 170.742 368.466 171.862C368.466 172.542 368.299 173.149 367.966 173.682C367.646 174.216 367.193 174.636 366.606 174.942ZM359.546 170.662V173.962H362.766C363.566 173.962 364.173 173.822 364.586 173.542C364.999 173.262 365.206 172.849 365.206 172.302C365.206 171.756 364.999 171.349 364.586 171.082C364.173 170.802 363.566 170.662 362.766 170.662H359.546ZM363.326 179.782C364.179 179.782 364.819 179.642 365.246 179.362C365.686 179.082 365.906 178.649 365.906 178.062C365.906 176.902 365.046 176.322 363.326 176.322H359.546V179.782H363.326ZM371.399 167.382H374.519V182.222H371.399V167.382ZM381.755 171.302C383.421 171.302 384.701 171.702 385.595 172.502C386.488 173.289 386.935 174.482 386.935 176.082V182.222H384.015V180.882C383.428 181.882 382.335 182.382 380.735 182.382C379.908 182.382 379.188 182.242 378.575 181.962C377.975 181.682 377.515 181.296 377.195 180.802C376.875 180.309 376.715 179.749 376.715 179.122C376.715 178.122 377.088 177.336 377.835 176.762C378.595 176.189 379.761 175.902 381.335 175.902H383.815C383.815 175.222 383.608 174.702 383.195 174.342C382.781 173.969 382.161 173.782 381.335 173.782C380.761 173.782 380.195 173.876 379.635 174.062C379.088 174.236 378.621 174.476 378.235 174.782L377.115 172.602C377.701 172.189 378.401 171.869 379.215 171.642C380.041 171.416 380.888 171.302 381.755 171.302ZM381.515 180.282C382.048 180.282 382.521 180.162 382.935 179.922C383.348 179.669 383.641 179.302 383.815 178.822V177.722H381.675C380.395 177.722 379.755 178.142 379.755 178.982C379.755 179.382 379.908 179.702 380.215 179.942C380.535 180.169 380.968 180.282 381.515 180.282ZM395.076 182.382C393.929 182.382 392.896 182.149 391.976 181.682C391.069 181.202 390.356 180.542 389.836 179.702C389.329 178.862 389.076 177.909 389.076 176.842C389.076 175.776 389.329 174.822 389.836 173.982C390.356 173.142 391.069 172.489 391.976 172.022C392.896 171.542 393.929 171.302 395.076 171.302C396.209 171.302 397.196 171.542 398.036 172.022C398.889 172.489 399.509 173.162 399.896 174.042L397.476 175.342C396.916 174.356 396.109 173.862 395.056 173.862C394.242 173.862 393.569 174.129 393.036 174.662C392.502 175.196 392.236 175.922 392.236 176.842C392.236 177.762 392.502 178.489 393.036 179.022C393.569 179.556 394.242 179.822 395.056 179.822C396.122 179.822 396.929 179.329 397.476 178.342L399.896 179.662C399.509 180.516 398.889 181.182 398.036 181.662C397.196 182.142 396.209 182.382 395.076 182.382ZM406.234 178.002L404.734 179.482V182.222H401.614V167.382H404.734V175.782L409.294 171.462H413.014L408.534 176.022L413.414 182.222H409.634L406.234 178.002ZM427.421 181.702C427.114 181.929 426.734 182.102 426.281 182.222C425.841 182.329 425.374 182.382 424.881 182.382C423.601 182.382 422.608 182.056 421.901 181.402C421.208 180.749 420.861 179.789 420.861 178.522V174.102H419.201V171.702H420.861V169.082H423.981V171.702H426.661V174.102H423.981V178.482C423.981 178.936 424.094 179.289 424.321 179.542C424.561 179.782 424.894 179.902 425.321 179.902C425.814 179.902 426.234 179.769 426.581 179.502L427.421 181.702ZM433.513 171.302C435.179 171.302 436.459 171.702 437.353 172.502C438.246 173.289 438.693 174.482 438.693 176.082V182.222H435.773V180.882C435.186 181.882 434.093 182.382 432.493 182.382C431.666 182.382 430.946 182.242 430.333 181.962C429.733 181.682 429.273 181.296 428.953 180.802C428.633 180.309 428.473 179.749 428.473 179.122C428.473 178.122 428.846 177.336 429.593 176.762C430.353 176.189 431.519 175.902 433.093 175.902H435.573C435.573 175.222 435.366 174.702 434.953 174.342C434.539 173.969 433.919 173.782 433.093 173.782C432.519 173.782 431.953 173.876 431.393 174.062C430.846 174.236 430.379 174.476 429.993 174.782L428.873 172.602C429.459 172.189 430.159 171.869 430.973 171.642C431.799 171.416 432.646 171.302 433.513 171.302ZM433.273 180.282C433.806 180.282 434.279 180.162 434.693 179.922C435.106 179.669 435.399 179.302 435.573 178.822V177.722H433.433C432.153 177.722 431.513 178.142 431.513 178.982C431.513 179.382 431.666 179.702 431.973 179.942C432.293 180.169 432.726 180.282 433.273 180.282ZM448.356 182.222L445.996 178.922L443.556 182.222H440.156L444.296 176.802L440.296 171.462H443.796L446.076 174.602L448.416 171.462H451.736L447.736 176.722L451.896 182.222H448.356Z" fill="#083E5B"/>
<g clip-path="url(#clip0_1085_720)">
<path d="M355.34 184.996C355.34 250.903 301.903 304.34 236.015 304.34C170.09 304.34 116.653 250.903 116.653 184.996C116.653 119.071 170.09 65.6526 235.997 65.6526C301.903 65.6526 355.34 119.071 355.34 184.996Z" fill="#93C4ED" fill-opacity="0.2"/>
<path d="M352.982 133.306C351.857 130.812 351.257 127.681 349.832 125.356C347.713 121.906 343.925 119.675 341.563 116.394C337.869 111.256 337.925 104.431 334.419 99.2187C331.588 94.9812 328.644 91.7 325.288 87.8187C323 85.1562 318.331 79.9437 315.331 78.2562C313.25 77.0937 310.438 77.15 308.207 76.6437C303.875 75.65 299.469 74.75 295.138 73.8312C293.863 73.55 292.588 73.55 291.294 73.55C289.531 73.55 287.863 73.85 286.119 73.8312C278.938 73.8125 273.2 79.5687 266.019 79.7375C264.407 79.775 262.85 79.7 261.275 79.475C259.382 79.1937 258.594 78.35 257.281 77.0187C256.138 75.8 254.788 75.1062 253.157 74.6937C251.581 74.3 249.8 74.4312 248.113 74.4312C246.425 74.4312 245.338 74.4312 244.269 73.2312C243.669 72.5375 243.163 71.8625 242.244 71.5437C241.382 71.2437 240.613 71.4687 239.713 71.3562C235.457 70.8125 231.538 71.0375 227.244 71.2062C222.425 71.4125 217.925 73.3062 213.65 75.4437C209.994 77.2812 198.181 80.8062 197.394 85.3812C197.056 87.3125 197.788 87.425 199.175 88.2125C202.363 89.9937 205.963 90.5562 209.656 90.65C210.95 90.6875 212.075 90.9687 213.388 90.9687C215.431 90.9687 217.156 90.8187 218.656 89.375C219.819 88.25 220.681 86.8812 221.544 85.5312C223.288 82.8125 225.181 79.8312 228.631 79.2312C229.438 79.0812 230.413 79.2875 230.938 80C231.594 80.9187 230.938 81.725 230.581 82.5687C229.231 85.85 228.631 90.1437 225.744 92.5437C221.919 95.6937 215.619 93.95 211.213 93.4062C206.488 92.825 205.044 93.4625 201.65 97.025C199.888 98.9 197.919 100.812 195.463 101.769C193.269 102.631 191 101.356 188.9 102.106C188.113 102.387 187.719 103.081 186.744 102.556C185.956 102.144 185.694 101.206 185.9 100.381C186.125 99.4812 186.5 99.125 186.631 98.2062C187.063 95.2062 185.356 93.95 183.631 91.7937C183.05 91.0437 182.975 90.575 182.019 90.1625C179.975 89.2812 178.531 89.9375 177.481 91.6812C176.975 92.5062 176.525 93.575 175.7 94.1375C174.594 94.8875 173.656 94.2875 172.494 94.5687C171.238 94.8875 169.831 96.4812 169.456 97.6812C169.288 98.2437 169.344 102.331 169.775 102.425C171.031 102.669 172.325 102.444 173.581 102.669C173.956 104.787 173.038 108.2 175.4 109.287C176.675 109.887 179.038 110.431 180.35 109.812C181.156 109.437 183.106 106.869 184.1 107.694C185.638 109.025 184.531 112.4 184.081 114.069C183.388 116.562 180.931 116.281 178.756 116.112C177.894 116.056 177.05 115.906 176.188 115.775C175.456 115.662 174.669 114.95 173.938 114.969C172.231 115.006 170.863 118.512 170.375 119.806C169.513 122.094 168.744 125.544 169.944 127.869C171.219 130.344 173.638 129.556 175.963 129.8C178.306 130.044 180.313 130.194 182.638 129.537C184.381 129.05 186.275 127.925 187.625 126.65C191.225 123.2 204.013 110.994 207.2 120.931C207.856 122.975 207.294 125.337 208.119 127.287C209.506 130.662 213.2 127.269 214.606 125.787C217.663 122.6 216.744 122.281 214.456 119.469C213.181 117.894 214.063 115.981 215.938 115.812C219.5 115.494 221.094 118.512 222.425 121.287C223.006 122.506 223.1 124.287 224.394 124.906C225.688 125.544 227.788 125.675 229.156 125.281C231.219 124.681 232.194 122.731 234.406 122.525C235.907 122.375 237.181 123.087 238.381 123.856C239.394 124.494 239.919 125.225 239.806 126.462C239.731 127.456 239.038 128.15 239.263 129.162C239.656 130.831 241.456 131.769 242.975 132.087C246.538 132.837 250.138 131.562 253.644 131.169C255.519 130.962 257.188 131.3 258.688 132.5C260.844 134.244 262.269 137.581 259.944 139.831C257.975 141.725 252.8 140.825 250.325 140.825C245.394 140.825 239.919 138.144 235.044 139.587C233.6 140.019 232.213 140.525 230.788 141.05C225.969 142.887 219.294 143.094 214.475 141.219C210.669 139.719 204.388 136.944 201.5 134C200.544 133.006 200.281 131.937 198.913 131.169C196.175 129.65 192.875 130.269 190.063 131.244C186.088 132.612 181.738 133.662 177.969 135.275C172.644 137.562 165.163 142.887 161.694 147.537C157.513 153.125 155.131 161.862 153.969 168.519C153.406 171.819 151.85 174.706 152.675 178.287C153.538 181.869 155.15 186.8 157.438 189.519C162.275 195.256 169.025 197.487 176.338 196.981C182.881 196.512 189.856 195.162 195.819 198.762C202.306 202.681 203.019 209.712 205.156 216.256C206.994 221.844 210.163 226.137 210.05 232.231C209.956 238.944 208.006 245.975 211.4 252.237C214.4 257.75 217.344 265.081 222.519 268.906C228.931 273.612 242.656 274.625 248.506 268.756C251.019 266.244 253.644 262.662 255.406 259.569C257.525 255.875 258.125 251.9 259.888 248.3C261.556 244.85 265.531 242.881 267.256 239.375C268.663 236.544 269.188 232.737 269.056 229.587C268.944 226.269 267.519 223.85 267.444 220.625C267.313 216.425 267.707 213.856 270.65 210.8C276.238 205.025 300.8 188.694 282.988 183.406C276.988 181.625 274.381 178.231 270.463 173.525C267.069 169.456 263.938 165.444 261.069 161.131C259.1 158.15 257.319 154.7 256.531 151.194C255.931 148.437 258.5 145.55 261.144 148.1C262.307 149.225 263.375 151.456 264.106 152.806C266.15 156.706 268.775 159.912 271.288 163.381C274.55 167.937 277.719 174.125 282.894 176.731C291.069 180.819 313.85 160.719 299.6 157.156C296.9 156.481 293.938 155.937 291.763 154.044C290.357 152.825 286.757 147.931 289.475 146.919C290.432 146.544 291.35 146.394 292.363 146.619C293.338 146.825 294.444 147.669 295.269 148.156C296.488 148.887 297.444 149.731 298.532 150.631C299.432 151.362 300.425 151.775 301.438 152.337C302.563 152.956 303.538 153.969 304.682 154.531C308.038 156.144 311.619 155.262 315.125 155.637C318.482 156.012 321.632 158.375 323.507 161.112C327.838 167.469 327.463 173.637 329.394 180.669C330.369 184.175 332.488 187.044 336.707 187.231C340.869 187.419 342.313 183.331 342.407 179.844C342.482 176.825 341.863 173.319 343.025 170.694C344.3 167.844 346.813 166.287 349.138 164.375C355.025 159.481 358.025 154.4 357.913 146.619C357.819 141.237 355.194 138.125 352.982 133.306ZM258.65 120.575C258.144 120.369 257.619 120.2 257 120.106C256.306 119.994 255.838 119.787 255.088 119.919C254.244 120.05 253.382 120.387 252.557 120.537C251.657 120.706 250.757 121.437 249.8 121.194C246.763 120.425 249.988 115.212 251.244 114.162C252.406 113.206 253.738 113.112 255.182 113.037C257.357 112.925 258.988 111.669 261.069 112.925C261.594 113.244 261.913 113.656 262.269 114.125C262.944 115.081 263.281 116.169 263.769 117.237C264.163 118.137 264.407 119.131 264.425 120.106C264.444 122.45 262.157 122.094 260.657 121.475C259.907 121.156 259.288 120.837 258.65 120.575ZM288.688 127.587C286.757 126.256 285.613 123.744 285.238 121.587C285.05 120.462 284.919 119.319 284.713 118.231C284.507 117.219 284.6 115.925 285.294 115.1C285.838 114.481 287.113 114.144 287.919 114.181C290.394 114.294 289.85 117.537 291.2 118.812C292.4 119.937 294.238 121.137 294.65 122.825C295.232 125.337 293.432 129.144 290.375 128.375C289.757 128.187 289.194 127.925 288.688 127.587Z" fill="#F77F00" fill-opacity="0.5"/>
<path d="M285.219 237.95C283.044 237.087 280.438 238.662 278.751 239.9C277.926 240.5 276.988 241.044 276.219 241.681C275.282 242.431 275.094 243.65 274.776 244.756C274.401 246.106 273.557 247.4 273.369 248.731C272.882 252.012 273.276 257.375 278.094 256.531C281.544 255.931 283.738 251.731 284.976 248.9C285.669 247.362 287.732 238.944 285.219 237.95Z" fill="#F77F00" fill-opacity="0.5"/>
</g>
<defs>
<clipPath id="clip0_1085_720">
<rect width="240" height="240" fill="white" transform="translate(116 65)"/>
</clipPath>
</defs>
</svg>
