<svg width="100" height="102" viewBox="0 0 100 102" fill="none" xmlns="http://www.w3.org/2000/svg">
    <g clip-path="url(#clip0_741_398)">
        <path
            d="M84.375 74.3353C84.375 93.4478 69.0625 93.4478 50 93.4478C30.9375 93.4478 15.625 93.4478 15.625 74.3353C15.625 55.2228 31.0938 23.9478 50 23.9478C68.9062 23.9478 84.375 55.0648 84.375 74.3353Z"
            fill="#F77F00" fill-opacity="0.5"/>
        <path opacity="0.5"
              d="M84.375 74.3353C84.375 67.8592 82.6562 59.9615 79.5312 52.3796C80.1562 57.2762 78.9062 65.9637 64.0625 69.2808C42.9688 73.8615 53.9063 79.8637 45.625 80.6535C38.5938 81.2853 19.8438 78.4421 16.0938 67.7012C15.7813 70.0705 15.4688 72.2819 15.4688 74.4933C15.625 93.4478 31.0938 93.4478 50 93.4478C68.9062 93.4478 84.375 93.4478 84.375 74.3353Z"
              fill="#7C0225"/>
        <path
            d="M59.2187 65.1739C58.5937 62.0148 55.9374 61.0671 53.1249 60.9092V56.4864C53.9062 56.8023 54.8437 57.2762 55.4687 57.7501C56.7187 58.5399 57.9687 56.4864 56.7187 55.6967C55.6249 55.0648 54.3749 54.433 53.1249 53.9592V48.7467C53.1249 47.1671 50.7812 47.1671 50.7812 48.7467V53.3273C49.5312 53.1694 48.2812 53.1694 47.0312 53.3273C46.8749 52.2217 46.5624 51.116 46.2499 50.0103C45.9374 48.4308 43.5937 49.0626 44.0624 50.6421C44.3749 51.7478 44.5312 52.8535 44.8437 53.9592C44.6874 53.9592 44.6874 53.9592 44.5312 54.1171C41.4062 55.3808 39.3749 58.5399 41.7187 61.541C42.8124 62.9626 44.2187 63.4364 45.7812 63.7524C45.9374 65.8058 45.9374 67.8592 45.9374 69.9126C44.8437 69.2808 43.9062 68.333 43.1249 67.5433C42.0312 66.4376 40.4687 68.1751 41.4062 69.2808C42.8124 70.8603 44.3749 71.966 45.9374 72.7558C45.9374 74.4933 46.0937 76.2308 46.2499 77.9683C46.4062 79.5478 48.7499 79.5478 48.5937 77.9683C48.4374 76.3887 48.2812 74.9671 48.2812 73.3876C49.2187 73.5455 50.1562 73.5455 51.0937 73.5455C51.2499 75.1251 51.4062 76.7046 51.5624 78.4421C51.7187 80.0217 54.0624 80.0217 53.9062 78.4421C53.7499 76.7046 53.5937 74.9671 53.4374 73.0717C56.8749 71.808 59.9999 69.1228 59.2187 65.1739ZM50.7812 55.6967V60.9092C49.9999 60.9092 49.3749 61.0671 48.7499 61.0671H47.9687L47.4999 55.3808C48.5937 55.3808 49.6874 55.5387 50.7812 55.6967ZM45.1562 60.7512C44.5312 60.5933 43.9062 60.1194 43.2812 59.6455C41.8749 58.2239 43.9062 56.9603 45.1562 56.3285C45.3124 57.908 45.4687 59.3296 45.6249 60.9092C45.4687 60.9092 45.3124 60.9092 45.1562 60.7512ZM50.3124 70.8603C49.5312 71.0183 48.9062 70.8603 48.2812 70.7023C48.1249 68.333 48.1249 65.9637 48.1249 63.4364C49.0624 63.4364 49.9999 63.2785 50.9374 63.2785C50.9374 65.8058 51.0937 68.1751 51.0937 70.7023C50.7812 70.8603 50.6249 70.8603 50.3124 70.8603ZM55.4687 69.1228C54.8437 69.5967 54.0624 69.9126 53.4374 70.2285C53.2812 67.8592 53.2812 65.6478 53.2812 63.2785H54.0624C57.0312 63.9103 57.8124 67.2274 55.4687 69.1228Z"
            fill="#7C0225"/>
        <path d="M53.125 87.1296H49.5312V93.4478L64.0625 101.346L96.875 91.0785V85.5501L84.8437 78.4421L53.125 87.1296Z"
              fill="#083E5B"/>
        <path
            d="M50 83.4968C50 83.4968 53.75 89.657 64.375 95.0275C64.375 95.0275 80.9375 94.2377 96.875 83.4968C96.875 83.4968 87.6563 78.9161 85 72.9138C85 72.9138 78.75 81.7593 50 83.4968Z"
            fill="#93C4ED"/>
        <path
            d="M42.9688 86.9718L46.4062 86.8138L46.875 92.6581L33.2812 101.346L0.625 94.2377L0.15625 89.0252L11.25 81.2854L42.9688 86.9718Z"
            fill="#083E5B"/>
        <path
            d="M45.625 83.3387C45.625 83.3387 42.3438 89.4989 32.5 95.3432C32.5 95.3432 16.4062 95.8171 0 87.1296C0 87.1296 8.75 82.075 10.7812 76.0728C10.7812 76.0728 17.6563 83.9705 45.625 83.3387Z"
            fill="#93C4ED"/>
        <path
            d="M37.8125 85.0763C37.8125 85.0763 37.3438 86.34 39.5312 86.4979L33.75 91.3945C33.75 91.3945 30.3125 91.0786 29.5312 93.4479C29.5312 93.4479 15.4688 91.8684 6.40625 87.7616C6.40625 87.7616 8.28125 86.34 5.9375 85.3922C5.9375 85.3922 8.59375 83.4968 9.21875 81.7593C9.21875 81.7593 11.7187 82.0752 12.5 80.1797C12.8125 80.0218 22.1875 85.7082 37.8125 85.0763V85.0763Z"
            stroke="#083E5B" stroke-width="2.5" stroke-miterlimit="10"/>
        <path
            d="M13.75 87.2875C15.3896 87.2875 16.7188 86.3681 16.7188 85.2341C16.7188 84.1 15.3896 83.1807 13.75 83.1807C12.1104 83.1807 10.7812 84.1 10.7812 85.2341C10.7812 86.3681 12.1104 87.2875 13.75 87.2875Z"
            fill="#083E5B"/>
        <path
            d="M29.6875 82.707C29.6875 82.707 26.0937 87.4456 18.2812 93.9218L18.75 98.1865L13.2812 96.9229L12.9688 92.3422C12.9688 92.3422 20.9375 84.9184 22.6562 81.2854C22.5 81.2854 25.3125 82.2331 29.6875 82.707Z"
            fill="#F9F3D9"/>
        <path
            d="M65.7812 81.6013C65.7812 81.6013 67.1875 85.3922 77.8125 92.3422V96.9229L83.9063 95.0274V90.2888C83.9063 90.2888 76.5625 85.0763 72.1875 79.8638L65.7812 81.6013Z"
            fill="#F9F3D9"/>
        <path
            d="M56.875 76.5467L53.4375 76.3887L53.125 82.8649L67.0313 91.8683L99.6875 82.8649L99.8438 77.1785L88.4375 69.1228L56.875 76.5467Z"
            fill="#083E5B"/>
        <path
            d="M54.0625 72.5979C54.0625 72.5979 57.5 79.232 67.6563 85.2342C67.6563 85.2342 83.9063 85.2343 100 75.1252C100 75.1252 91.0938 69.9127 88.9063 63.4365C88.9063 63.4365 82.1875 72.282 54.0625 72.5979Z"
            fill="#93C4ED"/>
        <path
            d="M61.0937 74.3353C61.0937 74.3353 61.875 75.5989 59.375 76.0728L65.9375 81.2853C65.9375 81.2853 69.6875 80.3376 70.9375 82.5489C70.9375 82.5489 86.5625 79.7057 93.75 75.9148C93.75 75.9148 91.4062 74.8091 93.75 73.3876C93.75 73.3876 90.9375 71.0182 89.8438 69.4387C89.8438 69.4387 87.1875 70.2285 85.7813 68.333C85.7813 68.491 80.1562 73.5455 61.0937 74.3353V74.3353Z"
            stroke="#083E5B" stroke-width="2.5" stroke-miterlimit="10"/>
        <path
            d="M73.1249 78.2841C72.4999 79.0739 70.4687 79.3898 68.7499 78.9159C67.0312 78.442 66.2499 77.3364 66.8749 76.5466C67.4999 75.7568 69.5312 75.4409 71.2499 75.9148C72.9687 76.3886 73.7499 77.3364 73.1249 78.2841Z"
            fill="#083E5B"/>
        <path
            d="M70 71.3342C70 71.3342 73.75 76.3887 81.7188 83.1808L81.5625 87.9194L87.0313 86.3399L87.1875 81.2853C87.1875 81.2853 79.0625 73.3876 77.0312 69.5967C77.1875 69.5967 74.5312 70.7024 70 71.3342Z"
            fill="#F9F3D9"/>
        <path
            d="M71.875 3.41373C71.875 13.049 59.5312 28.6865 50 28.6865C40.4688 28.6865 28.125 14.6285 28.125 4.99328C28.125 -4.64195 29.5313 4.99328 39.0625 4.99328C40.4688 4.99328 47.0312 0.254639 50 0.254639C52.0312 0.254639 57.8125 4.99328 60.9375 4.99328C69.2188 4.99328 71.875 -3.85218 71.875 3.41373Z"
            fill="#F77F00" fill-opacity="0.5"/>
        <path
            d="M47.1875 21.2627C46.25 21.8945 41.7188 21.4207 40.3125 22.5263C38.4375 23.9479 41.0938 27.265 39.2188 29.3184C35.4688 33.1093 32.5 37.3741 33.4375 39.7434C35 43.8502 37.9688 32.1616 40.625 36.5843C43.2813 41.007 42.8125 33.5832 46.875 37.3741C50.9375 41.165 47.5 30.582 51.4063 35.1627C55.3125 39.7434 55.4688 44.9559 58.2813 44.9559C61.5625 44.9559 54.8438 32.4775 59.2188 35.4786C63.5938 38.4798 68.4375 37.3741 64.0625 32.7934C62.6563 31.3718 60.7813 28.8445 58.5938 26.6332C57.8125 25.8434 58.4375 21.7366 57.6563 21.1048C56.7188 20.315 54.375 22.8423 53.4375 22.3684C51.5625 21.4207 52.1875 23.1582 49.375 23.632C47.5 24.2638 49.0625 19.9991 47.1875 21.2627Z"
            fill="#7C0225"/>
        <path
            d="M29.2188 30.5819C35.3125 24.7375 46.4062 28.0546 52.9687 30.8978C59.375 33.7409 63.2812 24.7375 59.2187 20.1568C56.875 17.4716 53.125 20.6307 51.7187 22.5262C50.1562 24.4216 48.9062 26.475 47.1875 28.3705C44.6875 31.2137 38.5937 28.8443 40.4687 24.8955C42.5 20.7887 51.0937 25.5273 53.9062 26.3171C59.375 27.8966 65.1562 28.5284 70.625 26.475C72.5 25.8432 71.7187 22.6841 69.8437 23.4739C63.75 25.6853 57.6562 24.2637 51.875 22.3682C48.9062 21.4205 44.2187 18.8932 41.0937 20.3148C32.1875 24.5796 40.4688 36.7421 47.9688 32.0034C49.6875 30.8978 50.7812 29.1603 52.0312 27.5807C52.8125 26.633 56.7187 20.6307 57.6562 23.6318C58.125 25.2114 57.6562 28.0546 55.9375 28.5284C54.8437 29.0023 52.6562 27.4228 51.5625 27.1068C49.5312 26.3171 47.5 25.6853 45.3125 25.2114C39.5312 23.9478 31.7188 24.2637 27.1875 28.5284C25.625 29.7921 27.8125 32.0034 29.2188 30.5819Z"
            fill="#E8E8E8"/>
        <path
            d="M70 1.04441C68.4375 2.30805 65.625 4.99328 60.9375 4.99328C57.8125 4.99328 52.0312 0.254639 50 0.254639C47.0312 0.254639 40.4688 4.99328 39.0625 4.99328C33.9062 4.99328 31.0938 2.30805 29.6875 1.20237C29.6875 1.20237 31.4062 8.31032 36.7188 11.9433C40.625 14.4705 40.1562 11.4694 42.1875 8.62623C44.2188 5.78305 45.625 4.36146 49.2188 11.4694C51.0938 15.4183 54.6875 0.728502 57.5 5.46714C62.6562 14.1546 64.5312 9.416 70 1.04441Z"
            fill="#7C0225"/>
        <path
            d="M81.875 83.0229L81.7188 87.7615L87.1875 86.182L87.3438 81.1274C87.3438 81.2854 84.0625 82.549 81.875 83.0229Z"
            fill="#F77F00" fill-opacity="0.5"/>
        <path d="M77.8125 92.5001V97.0807L83.9062 95.1853V90.4467C83.75 90.2887 82.1875 91.2364 77.8125 92.5001Z"
              fill="#F77F00" fill-opacity="0.5"/>
        <path
            d="M18.2813 93.7639L18.75 98.1866L13.2813 96.923L12.9688 92.3423C12.8125 92.3423 15 93.1321 18.2813 93.7639Z"
            fill="#F77F00" fill-opacity="0.5"/>
    </g>
    <defs>
        <clipPath id="clip0_741_398">
            <rect width="100" height="101.091" fill="white" transform="translate(0 0.254639)"/>
        </clipPath>
    </defs>
</svg>
