<svg width="100" height="100" viewBox="0 0 100 100" fill="none" xmlns="http://www.w3.org/2000/svg">
    <path
        d="M86.7188 77.3438H19.5312V16.4062C19.5312 15.9766 19.1797 15.625 18.75 15.625H13.2812C12.8516 15.625 12.5 15.9766 12.5 16.4062V83.5938C12.5 84.0234 12.8516 84.375 13.2812 84.375H86.7188C87.1484 84.375 87.5 84.0234 87.5 83.5938V78.125C87.5 77.6953 87.1484 77.3438 86.7188 77.3438ZM29.8633 62.2754C30.166 62.5781 30.6543 62.5781 30.9668 62.2754L44.4727 48.8379L56.9336 61.377C57.2363 61.6797 57.7344 61.6797 58.0371 61.377L84.9316 34.4922C85.2344 34.1895 85.2344 33.6914 84.9316 33.3887L81.0645 29.5215C80.9176 29.3761 80.7193 29.2945 80.5127 29.2945C80.3061 29.2945 80.1078 29.3761 79.9609 29.5215L57.5 51.9727L45.0586 39.4531C44.9118 39.3077 44.7135 39.2262 44.5068 39.2262C44.3002 39.2262 44.1019 39.3077 43.9551 39.4531L26.0059 57.2949C25.8605 57.4418 25.7789 57.64 25.7789 57.8467C25.7789 58.0533 25.8605 58.2516 26.0059 58.3984L29.8633 62.2754Z"
        fill="#083E5B"/>
</svg>
