<svg width="134" height="109" viewBox="0 0 134 109" fill="none" xmlns="http://www.w3.org/2000/svg">
    <path
        d="M82.1967 41.0984C82.1967 63.7961 63.7961 82.1967 41.0984 82.1967C18.4029 82.1967 0 63.7961 0 41.0984C0 18.4029 18.4029 0 41.0984 0C63.7961 0 82.1967 18.4029 82.1967 41.0984Z"
        fill="#F77F00" fill-opacity="0.5"/>
    <path
        d="M35.3407 35.7377C34.384 35.7377 33.4935 35.1327 33.1739 34.176C32.7104 32.8083 30.8518 28.888 28.491 28.888C26.0662 28.888 24.1802 33.0595 23.808 34.176C23.4085 35.3701 22.123 36.0209 20.9197 35.619C19.7233 35.2217 19.0771 33.9271 19.4767 32.7307C19.7621 31.8722 22.4541 24.3215 28.491 24.3215C34.5278 24.3215 37.2198 31.8722 37.5075 32.733C37.907 33.9294 37.2609 35.224 36.0645 35.6213C35.8224 35.6989 35.5781 35.7377 35.3407 35.7377ZM58.1731 35.7377C57.2164 35.7377 56.326 35.1327 56.0086 34.176C55.5451 32.8083 53.682 28.888 51.3234 28.888C48.8986 28.888 47.0103 33.0595 46.6382 34.176C46.2386 35.3701 44.9577 36.0209 43.7499 35.619C42.5557 35.2217 41.9073 33.9271 42.3069 32.7307C42.5945 31.8722 45.2842 24.3215 51.3234 24.3215C57.3626 24.3215 60.0522 31.8722 60.3376 32.733C60.7372 33.9294 60.091 35.224 58.8946 35.6213C58.6549 35.6989 58.4106 35.7377 58.1731 35.7377ZM39.9072 44.8707C31.635 44.8707 26.1461 43.9072 19.358 42.5875C17.8077 42.2884 14.7915 42.5875 14.7915 47.154C14.7915 56.2869 25.283 67.7031 39.9072 67.7031C54.5291 67.7031 65.0228 56.2869 65.0228 47.154C65.0228 42.5875 62.0067 42.2861 60.4563 42.5875C53.6683 43.9072 48.1794 44.8707 39.9072 44.8707Z"
        fill="#083E5B"/>
    <path
        d="M19.3579 48.3452C19.3579 48.3452 26.2076 50.6285 39.9071 50.6285C53.6065 50.6285 60.4563 48.3452 60.4563 48.3452C60.4563 48.3452 57.3876 63.7571 39.9071 63.7571C22.4266 63.7571 19.3579 48.3452 19.3579 48.3452Z"
        fill="white"/>
    <path
        d="M39.9071 58.8344C31.6966 58.8344 25.5866 57.985 21.785 57.1334L19.9014 52.8614C21.7805 53.5738 28.7809 54.9095 39.9094 54.9095C51.2206 54.9095 58.2598 53.503 60.1481 52.7678L58.5475 56.9736C54.8167 57.8412 48.4579 58.8344 39.9071 58.8344Z"
        fill="#083E5B"/>
    <path
        d="M119.824 72.5364H119.818C119.751 71.1684 118.299 69.8896 115.792 69.1358C110.426 67.522 104.473 66.5783 97.6832 66.5225C90.8986 66.5783 84.9461 67.522 79.5742 69.1358C77.067 69.8896 75.6263 71.1684 75.5537 72.5364H75.5426V100.501C75.4812 102.065 77.229 103.74 81.2718 104.885C85.4486 106.068 91.0997 106.833 97.6776 106.833C104.256 106.833 109.907 106.068 114.083 104.885C118.322 103.684 120.036 101.903 119.79 100.278H119.813V72.5364H119.824Z"
        fill="#F77F00" fill-opacity="0.5"/>
    <path
        d="M102.095 97.9662L99.5874 92.0583C100.312 91.7084 100.923 91.1613 101.351 90.4797C101.778 89.7982 102.005 89.0099 102.005 88.2053C102.005 85.8377 100.084 83.9224 97.7223 83.9224C95.3603 83.9224 93.4394 85.8433 93.4394 88.2053C93.4394 89.7968 94.3105 91.1872 95.6004 91.9243L93.2663 98.0053C92.9703 98.7759 93.5399 99.5967 94.3608 99.5967H101.017C101.855 99.5967 102.418 98.7368 102.095 97.9662Z"
        fill="#083E5B"/>
    <path
        d="M101.854 97.4187H93.4838L93.2604 98.005C92.9645 98.7756 93.5341 99.5965 94.3549 99.5965H101.011C101.854 99.5965 102.418 98.7365 102.089 97.9659L101.854 97.4187Z"
        fill="#F77F00" fill-opacity="0.5"/>
    <path
        d="M95.9799 90.7961C96.0804 90.5058 95.9743 90.1931 95.7286 90.0144C95.3936 89.7687 94.9413 89.3331 94.6565 88.6407C93.6179 86.1391 94.8519 85.0278 94.8519 85.0278C94.405 85.4276 94.0477 85.9174 93.8032 86.4649C93.5588 87.0125 93.4329 87.6055 93.4336 88.2051C93.4336 89.7966 94.3047 91.187 95.5946 91.9241L95.9799 90.7961Z"
        fill="#F77F00" fill-opacity="0.5"/>
    <path
        d="M100.732 85.1562C100.732 85.1562 101.96 87.6244 100.553 89.2047C100.073 89.7407 99.6654 90.0255 99.3639 90.1651C99.0679 90.3047 98.9339 90.6565 99.0735 90.9525L99.5928 92.0469C100.317 91.697 100.929 91.1499 101.356 90.4684C101.784 89.7869 102.011 88.9986 102.011 88.194C102 86.3791 100.732 85.1562 100.732 85.1562Z"
        fill="#F77F00" fill-opacity="0.5"/>
    <path
        d="M114.848 68.7671C109.761 67.2874 104.116 66.4274 97.6829 66.3716C91.2501 66.4218 85.6047 67.2874 80.5176 68.7615C75.4194 70.2413 74.9113 73.9323 82.1314 75.9091C86.0905 76.9924 91.4511 77.6904 97.6829 77.6904C103.915 77.6904 109.275 76.9924 113.234 75.9091C120.455 73.9379 119.946 70.2413 114.848 68.7671Z"
        fill="#F77F00" fill-opacity="0.5"/>
    <path
        d="M112.844 61.0947C112.844 61.0947 112.637 62.0552 109.929 62.0552C107.221 62.0552 107.762 61.0947 107.762 61.0947V57.7108C107.762 51.6298 104.127 45.895 97.6775 45.895C92.4285 45.895 88.1512 50.446 88.1512 56.0356V72.2628C88.1512 72.2628 86.9729 73.2232 84.8287 73.2232C82.6844 73.2232 81.9585 72.2628 81.9585 72.2628V56.0412C81.9641 47.0286 89.0167 39.6968 97.6831 39.6968C106.349 39.6968 112.844 47.9444 112.844 57.7108V61.0947Z"
        fill="#083E5B" stroke="#083E5B" stroke-width="1.83562" stroke-miterlimit="10"/>
    <path
        d="M84.9571 55.4883C84.7394 56.5884 84.4211 59.1068 83.5835 59.0453C82.8855 58.9951 82.7849 57.5767 82.7794 56.4599C82.7738 55.3431 83.1144 51.8699 84.4657 48.6702C84.9739 47.4641 87.1126 44.1304 89.201 45.2026C90.5691 45.9062 88.6091 48.3575 87.7882 49.3627C86.6938 50.7084 85.4262 53.1151 84.9571 55.4883Z"
        fill="#083E5B"/>
    <path
        d="M109.823 73.8597C111.803 73.8597 113.408 73.0422 113.408 72.0337C113.408 71.0253 111.803 70.2078 109.823 70.2078C107.843 70.2078 106.238 71.0253 106.238 72.0337C106.238 73.0422 107.843 73.8597 109.823 73.8597Z"
        fill="#F77F00" fill-opacity="0.5"/>
</svg>
