<svg width="185" height="148" viewBox="0 0 185 148" fill="none" xmlns="http://www.w3.org/2000/svg">
    <path
        d="M183.588 46.1538C182.923 43.7962 181.738 41.6436 180.133 39.8769C178.907 38.4644 177.335 37.4492 175.594 36.9477C176.447 38.3877 177.219 40.0492 177.794 41.8215C178.439 43.6308 178.854 45.5631 178.981 47.5692C179.175 49.3025 179.175 51.0544 178.981 52.7877C178.622 51.5029 178.069 50.2891 177.345 49.1938C175.919 47.134 174.013 45.5089 171.816 44.48C169.384 43.3094 166.632 43.142 164.09 44.0101C161.549 44.8781 159.398 46.7202 158.052 49.1815C157.476 50.1908 157.015 51.2862 156.67 52.4554C143.055 28.2338 118.555 12.1969 90.5422 12.1969C89.1139 12.1969 87.6971 12.2338 86.2919 12.32C77.6011 12.3373 68.9539 13.6336 60.5942 16.1723C59.88 10.8308 53.3145 0 23.1362 0L32.3509 30.8923C26.5565 35.8971 21.6856 42.0117 17.9874 48.9231L0.0992765 49.2308C0.0992765 49.2308 -1.85886 98.4615 11.6177 98.4615H17.8377C22.0721 106.131 27.7376 112.788 34.4819 118.018L34.6546 147.692H47.0946C62.1837 147.692 69.21 147.692 69.21 138.462V133.662C80.8282 135.962 92.746 135.929 104.353 133.563L103.765 138.462C103.765 147.692 110.907 147.692 126.111 147.692H138.321V118.277C149.121 110.276 156.894 98.4174 160.24 84.8369C160.897 84.5046 161.553 84.5415 162.221 84.5415C162.89 84.5415 163.546 84.5046 164.203 84.4185C167.094 83.8523 169.732 82.6462 172.024 80.9354C175.122 78.5935 177.493 75.3143 178.831 71.52C179.154 70.3754 179.396 69.1692 179.557 67.9262L179.568 67.8031C182.114 64.5785 183.853 60.5415 184.395 56.0985C184.865 52.7033 184.581 49.2375 183.565 45.9815L183.588 46.1538ZM40.529 46.1538C42.8202 46.1538 45.0175 47.1264 46.6376 48.8575C48.2577 50.5886 49.1679 52.9365 49.1679 55.3846C49.1679 57.8328 48.2577 60.1806 46.6376 61.9117C45.0175 63.6429 42.8202 64.6154 40.529 64.6154C38.2379 64.6154 36.0406 63.6429 34.4205 61.9117C32.8004 60.1806 31.8902 57.8328 31.8902 55.3846C31.8902 52.9365 32.8004 50.5886 34.4205 48.8575C36.0406 47.1264 38.2379 46.1538 40.529 46.1538ZM67.8278 36.9231C66.527 37.3689 65.1205 37.3082 63.8575 36.7517C62.5946 36.1953 61.5569 35.179 60.9282 33.8831C60.7323 33.2373 60.6668 32.5545 60.736 31.8797C60.8052 31.2048 61.0077 30.5534 61.3299 29.9683C61.6521 29.3833 62.0868 28.8779 62.6053 28.4855C63.1238 28.0932 63.7142 27.8228 64.3377 27.6923C71.9136 25.7512 79.6888 24.8415 87.4783 24.9846L88.6416 24.9723C96.382 24.9723 103.892 25.9569 111.091 27.8277C112.542 28.1231 114.109 30.0677 114.109 32.4062C114.108 32.9036 114.035 33.3979 113.89 33.8708C113.487 34.6687 112.918 35.3576 112.227 35.8845C111.536 36.4114 110.742 36.7624 109.905 36.9108H108.142C101.708 35.2551 95.1105 34.4287 88.4919 34.4492H87.4667C80.4981 34.4492 73.7252 35.3477 67.2403 37.0462L67.8278 36.9231ZM168.038 72.9846C166.484 74.1925 164.704 75.0279 162.82 75.4338L161.358 75.4462V73.8462V70.0308C163.258 71.5692 165.666 72.4923 168.269 72.4923H168.511L168.038 72.9846ZM168.96 64.6154C167.889 64.7757 166.798 64.566 165.847 64.0168C164.896 63.4677 164.134 62.6079 163.673 61.5631C163.145 60.4883 162.87 59.2923 162.872 58.0785C162.874 56.8647 163.153 55.6697 163.684 54.5969C164.232 53.787 165.038 53.2195 165.951 53.0018C166.864 52.7841 167.819 52.9312 168.637 53.4154C169.681 53.8434 170.579 54.5995 171.212 55.5839C171.845 56.5683 172.185 57.7347 172.185 58.9292V58.9415C172.413 60.6481 172.409 62.3808 172.173 64.0862C171.104 64.3064 170.014 64.3972 168.925 64.3569L168.96 64.6154Z"
        fill="#083E5B"/>
</svg>
